<svg width="65" height="65" viewBox="0 0 65 65" fill="none" xmlns="http://www.w3.org/2000/svg">
<g clip-path="url(#clip0)">
<path d="M19.4736 22.8887H44.2751C44.801 22.8887 45.2272 22.4624 45.2272 21.9365C45.2272 21.4107 44.801 20.9844 44.2751 20.9844H19.4736C18.9477 20.9844 18.5215 21.4107 18.5215 21.9365C18.5215 22.4624 18.9478 22.8887 19.4736 22.8887Z" fill="#E3E3E3"/>
<path d="M19.474 28.4902H28.3107C28.8367 28.4902 29.2628 28.0639 29.2628 27.5381C29.2628 27.0122 28.8367 26.5859 28.3107 26.5859H19.4741C18.9482 26.5859 18.522 27.0122 18.522 27.5381C18.522 28.0639 18.9482 28.4902 19.474 28.4902Z" fill="#E3E3E3"/>
<path d="M19.4736 45.2969H33.6424C34.1683 45.2969 34.5945 44.8706 34.5945 44.3447C34.5945 43.8189 34.1683 43.3926 33.6424 43.3926H19.4736C18.9477 43.3926 18.5215 43.8189 18.5215 44.3447C18.5215 44.8706 18.9478 45.2969 19.4736 45.2969Z" fill="#E3E3E3"/>
<path d="M24.2515 15.6523H39.4983C40.0242 15.6523 40.4504 15.226 40.4504 14.7002C40.4504 14.1744 40.0242 13.748 39.4983 13.748H24.2515C23.7255 13.748 23.2993 14.1744 23.2993 14.7002C23.2993 15.226 23.7256 15.6523 24.2515 15.6523Z" fill="#E3E3E3"/>
<path d="M59.6952 42.745L58.0795 44.3607V44.1284C58.0795 43.2533 57.3677 42.5415 56.4926 42.5415H54.6123V40.6016H56.4926C57.3677 40.6016 58.0795 39.8898 58.0795 39.0147V37.4512C58.0795 36.9253 57.6533 36.499 57.1274 36.499C56.6014 36.499 56.1752 36.9253 56.1752 37.4512V38.6973H44.0599V26.5821H56.1752V28.4013L50.9468 33.6299L47.5225 30.2056C47.1505 29.8337 46.5477 29.8337 46.1759 30.2056C45.804 30.5774 45.804 31.1803 46.1759 31.552L50.2734 35.6497C50.4594 35.8357 50.703 35.9286 50.9468 35.9286C51.1904 35.9286 51.4341 35.8357 51.6201 35.6497L56.1753 31.0946V33.0078C56.1753 33.5337 56.6015 33.96 57.1275 33.96C57.6535 33.96 58.0796 33.5337 58.0796 33.0078V29.1902L61.042 26.2279C61.4138 25.856 61.4138 25.2531 61.042 24.8814C60.67 24.5096 60.0672 24.5096 59.6954 24.8814L58.0796 26.4971V26.2648C58.0796 25.3897 57.3678 24.6779 56.4927 24.6779H54.6124V6.7906C54.6124 6.05554 54.0145 5.45759 53.2794 5.45759H49.1548V1.33301C49.1548 0.597949 48.5569 0 47.8218 0H5.01221C4.27715 0 3.6792 0.597949 3.6792 1.33301V58.2094C3.6792 58.9445 4.27715 59.5424 5.01221 59.5424H9.13679V63.667C9.13679 64.4021 9.73474 65 10.4698 65H53.2793C54.0143 65 54.6123 64.4021 54.6123 63.667V58.4653H56.4926C57.3677 58.4653 58.0795 57.7535 58.0795 56.8784V47.0538L61.0418 44.0915C61.4137 43.7196 61.4137 43.1167 61.0418 42.745C60.67 42.3733 60.0671 42.3731 59.6952 42.745ZM56.1752 46.265L50.9466 51.4935L47.5223 48.0691C47.1504 47.6973 46.5476 47.6973 46.1757 48.0691C45.8039 48.441 45.8039 49.0439 46.1757 49.4156L50.2734 53.5133C50.4594 53.6993 50.703 53.7922 50.9468 53.7922C51.1904 53.7922 51.4341 53.6993 51.6201 53.5133L56.1753 48.9582V56.5612H52.3047C51.7787 56.5612 51.3525 56.9875 51.3525 57.5133C51.3525 58.0392 51.7787 58.4655 52.3047 58.4655H52.7081V63.0957H11.0412V7.36188H19.8047C20.3306 7.36188 20.7568 6.93558 20.7568 6.40974C20.7568 5.8839 20.3306 5.45759 19.8047 5.45759H10.4699C9.73486 5.45759 9.13691 6.05554 9.13691 6.7906V57.638H5.5835V1.9043H47.2504V5.45759H24.248C23.722 5.45759 23.2959 5.8839 23.2959 6.40974C23.2959 6.93558 23.722 7.36188 24.248 7.36188H52.7081V24.6778H43.7427C42.8676 24.6778 42.1558 25.3896 42.1558 26.2647V26.5864H31.8652C31.3392 26.5864 30.9131 27.0127 30.9131 27.5385C30.9131 28.0644 31.3392 28.4907 31.8652 28.4907H42.1558V32.1882H19.4738C18.9479 32.1882 18.5217 32.6145 18.5217 33.1404C18.5217 33.6662 18.9479 34.0925 19.4738 34.0925H42.1556V37.79H19.4738C18.9479 37.79 18.5217 38.2163 18.5217 38.7422C18.5217 39.268 18.9479 39.6943 19.4738 39.6943H42.3108C42.566 40.2297 43.111 40.6015 43.7426 40.6015H52.708V42.5414H43.7426C43.1333 42.5414 42.6039 42.8869 42.3381 43.3919H37.1972C36.6713 43.3919 36.2451 43.8183 36.2451 44.3441C36.2451 44.8699 36.6713 45.2962 37.1972 45.2962H42.1558V48.9938H19.4738C18.9479 48.9938 18.5217 49.4201 18.5217 49.9459C18.5217 50.4717 18.9479 50.898 19.4738 50.898H42.1556V54.5957H19.4738C18.9479 54.5957 18.5217 55.022 18.5217 55.5478C18.5217 56.0737 18.9479 56.5 19.4738 56.5H42.1556V56.8782C42.1556 57.7533 42.8675 58.4651 43.7426 58.4651H47.8613C48.3873 58.4651 48.8134 58.0388 48.8134 57.5129C48.8134 56.9871 48.3873 56.5608 47.8613 56.5608H44.0601V44.4455H56.1753V46.265H56.1752Z" fill="#E3E3E3"/>
</g>
<defs>
<clipPath id="clip0">
<rect width="65" height="65" fill="white"/>
</clipPath>
</defs>
</svg>
