<svg width="524" height="303" viewBox="0 0 524 303" fill="none" xmlns="http://www.w3.org/2000/svg">
<path d="M0 138.484C0 138.484 39.8057 121.094 49.2442 116.965C72.6863 106.711 262.173 39.5664 262.173 39.5664L315.579 59.697L311.071 62.1266L315.579 64.5561L275.005 81.563L301.014 93.3637L258.705 112.453L331.185 144.037L366.557 141.955L439.036 173.192L386.5 196L453.602 224.56V239.831L488.281 257.185L384.937 303L0 138.484Z" fill="white"/>
<path d="M348.084 143.092L239.448 188.42L329.978 229.304L439.261 182.198L348.084 143.092Z" stroke="#FBD0AC" stroke-width="2"/>
<path d="M348.084 138.65L239.448 183.979L329.978 224.863L439.261 177.757L348.084 138.65Z" stroke="#FAB378" stroke-width="2"/>
<path d="M89.2667 158.812L29.1299 135.84L261.351 43.6713L315.802 64.4193L89.2667 158.812Z" stroke="#FAB378" stroke-width="2"/>
<path d="M89.2667 154.362L29.1299 131.391L261.351 39.222L315.802 59.97L89.2667 154.362Z" stroke="#F06E00" stroke-width="2"/>
<path d="M192.593 59.9017V53.5996L227.443 68.0943L262.294 53.5996V59.2715L227.443 73.7662L192.593 59.9017Z" fill="#F5F3F3"/>
<path d="M227.445 39.1094L192.595 53.6034L227.445 68.0974L262.296 53.6034L227.445 39.1094Z" fill="#E3E3E3"/>
<path d="M227.443 73.7662V68.0943L262.294 53.5996V59.2715L227.443 73.7662Z" fill="#C4C4C4"/>
<path d="M192.593 52.7903V46.4883L227.443 60.983L262.294 46.4883V52.1601L227.443 66.6549L192.593 52.7903Z" fill="#F5F3F3"/>
<path d="M227.445 31.9922L192.595 46.4862L227.445 60.9802L262.296 46.4862L227.445 31.9922Z" fill="#E3E3E3"/>
<path d="M227.443 66.6549V60.983L262.294 46.4883V52.1601L227.443 66.6549Z" fill="#C4C4C4"/>
<path d="M192.593 45.681V39.3789L227.443 53.8736L262.294 39.3789V45.0508L227.443 59.5455L192.593 45.681Z" fill="#F5F3F3"/>
<path d="M227.445 24.8848L192.595 39.3788L227.445 53.8728L262.296 39.3788L227.445 24.8848Z" fill="#E3E3E3"/>
<path d="M227.443 59.5455V53.8736L262.294 39.3789V45.0508L227.443 59.5455Z" fill="#C4C4C4"/>
<path d="M192.593 38.5716V32.2695L227.443 46.7643L262.294 32.2695V37.9414L227.443 52.4361L192.593 38.5716Z" fill="#F5F3F3"/>
<path d="M227.445 17.7754L192.595 32.2694L227.445 46.7634L262.296 32.2694L227.445 17.7754Z" fill="#E3E3E3"/>
<path d="M227.443 52.4361V46.7643L262.294 32.2695V37.9414L227.443 52.4361Z" fill="#C4C4C4"/>
<path d="M189.01 31.8121V24.8633L227.44 40.8456L265.869 24.8633V31.1172L227.44 47.0996L189.01 31.8121Z" fill="#FBD0AC"/>
<path d="M227.441 8.88477L189.011 24.8671L227.441 40.8494L265.87 24.8671L227.441 8.88477Z" fill="#F06E00"/>
<path d="M227.439 47.0996V40.8456L265.869 24.8633V31.1172L227.439 47.0996Z" fill="#FAB378"/>
<path d="M192.593 20.7942V14.4922L227.443 28.9869L262.294 14.4922V20.164L227.443 34.6588L192.593 20.7942Z" fill="#F5F3F3"/>
<path d="M227.445 0L192.595 14.494L227.445 28.9881L262.296 14.494L227.445 0Z" fill="#E3E3E3"/>
<path d="M227.443 34.6588V28.9869L262.294 14.4922V20.164L227.443 34.6588Z" fill="#C4C4C4"/>
<path d="M49.0371 116.79V110.488L83.8878 124.983L118.738 110.488V116.16L83.8878 130.655L49.0371 116.79Z" fill="#F5F3F3"/>
<path d="M83.8892 95.9883L49.0386 110.482L83.8892 124.976L118.74 110.482L83.8892 95.9883Z" fill="#E3E3E3"/>
<path d="M83.8882 130.653V124.981L118.739 110.486V116.158L83.8882 130.653Z" fill="#C4C4C4"/>
<path d="M49.0371 109.673V103.371L83.8878 117.866L118.738 103.371V109.043L83.8878 123.538L49.0371 109.673Z" fill="#F5F3F3"/>
<path d="M83.8907 88.875L49.04 103.369L83.8907 117.863L118.741 103.369L83.8907 88.875Z" fill="#E3E3E3"/>
<path d="M83.8882 123.536V117.864L118.739 103.369V109.041L83.8882 123.536Z" fill="#C4C4C4"/>
<path d="M49.0371 102.562V96.2598L83.8878 110.754L118.738 96.2598V101.932L83.8878 116.426L49.0371 102.562Z" fill="#F5F3F3"/>
<path d="M83.8907 81.7656L49.04 96.2597L83.8907 110.754L118.741 96.2597L83.8907 81.7656Z" fill="#E3E3E3"/>
<path d="M83.8882 116.426V110.754L118.739 96.2598V101.932L83.8882 116.426Z" fill="#C4C4C4"/>
<path d="M49.0371 95.4544V89.1523L83.8878 103.647L118.738 89.1523V94.8242L83.8878 109.319L49.0371 95.4544Z" fill="#F5F3F3"/>
<path d="M83.8902 74.6543L49.0396 89.1483L83.8902 103.642L118.741 89.1483L83.8902 74.6543Z" fill="#E3E3E3"/>
<path d="M83.8882 109.319V103.647L118.739 89.1523V94.8242L83.8882 109.319Z" fill="#C4C4C4"/>
<path d="M45.4551 88.6949V81.7461L83.8844 97.7284L122.314 81.7461V88.0001L83.8844 103.982L45.4551 88.6949Z" fill="#FBD0AC"/>
<path d="M83.8873 65.7656L45.458 81.748L83.8873 97.7303L122.317 81.748L83.8873 65.7656Z" fill="#F06E00"/>
<path d="M83.8838 103.982V97.7284L122.313 81.7461V88.0001L83.8838 103.982Z" fill="#FAB378"/>
<path d="M49.0371 77.6771V71.375L83.8878 85.8697L118.738 71.375V77.0469L83.8878 91.5416L49.0371 77.6771Z" fill="#F5F3F3"/>
<path d="M83.8897 56.8809L49.0391 71.3749L83.8897 85.8689L118.74 71.3749L83.8897 56.8809Z" fill="#E3E3E3"/>
<path d="M83.8882 91.5396V85.8678L118.739 71.373V77.0449L83.8882 91.5396Z" fill="#C4C4C4"/>
<path d="M121.462 87.4485V81.1465L156.313 95.6412L191.164 81.1465V86.8183L156.313 101.313L121.462 87.4485Z" fill="#F5F3F3"/>
<path d="M156.316 66.6582L121.465 81.1522L156.316 95.6463L191.166 81.1522L156.316 66.6582Z" fill="#E3E3E3"/>
<path d="M156.313 101.313V95.6412L191.164 81.1465V86.8183L156.313 101.313Z" fill="#C4C4C4"/>
<path d="M121.462 80.3431V74.041L156.313 88.5357L191.163 74.041V79.7129L156.313 94.2076L121.462 80.3431Z" fill="#F5F3F3"/>
<path d="M156.316 59.5469L121.465 74.0409L156.316 88.5349L191.166 74.0409L156.316 59.5469Z" fill="#E3E3E3"/>
<path d="M156.313 94.2076V88.5357L191.164 74.041V79.7129L156.313 94.2076Z" fill="#C4C4C4"/>
<path d="M121.462 73.2376V66.9355L156.313 81.4303L191.163 66.9355V72.6074L156.313 87.1021L121.462 73.2376Z" fill="#F5F3F3"/>
<path d="M156.315 52.4395L121.464 66.9335L156.315 81.4275L191.165 66.9335L156.315 52.4395Z" fill="#E3E3E3"/>
<path d="M156.313 87.1002V81.4283L191.164 66.9336V72.6054L156.313 87.1002Z" fill="#C4C4C4"/>
<path d="M121.462 66.1224V59.8203L156.313 74.315L191.163 59.8203V65.4922L156.313 79.9869L121.462 66.1224Z" fill="#F5F3F3"/>
<path d="M156.316 45.3262L121.465 59.8202L156.316 74.3142L191.166 59.8202L156.316 45.3262Z" fill="#E3E3E3"/>
<path d="M156.313 79.9869V74.315L191.164 59.8203V65.4922L156.313 79.9869Z" fill="#C4C4C4"/>
<path d="M117.88 59.3727V52.4238L156.309 68.4062L194.738 52.4238V58.6778L156.309 74.6601L117.88 59.3727Z" fill="#FBD0AC"/>
<path d="M156.311 36.4375L117.882 52.4198L156.311 68.4022L194.74 52.4198L156.311 36.4375Z" fill="#F06E00"/>
<path d="M156.309 74.6601V68.4062L194.738 52.4238V58.6778L156.309 74.6601Z" fill="#FAB378"/>
<path d="M121.462 48.347V42.0449L156.313 56.5397L191.163 42.0449V47.7168L156.313 62.2115L121.462 48.347Z" fill="#F5F3F3"/>
<path d="M156.315 27.5527L121.464 42.0468L156.315 56.5408L191.165 42.0468L156.315 27.5527Z" fill="#E3E3E3"/>
<path d="M156.313 62.2115V56.5397L191.164 42.0449V47.7168L156.313 62.2115Z" fill="#C4C4C4"/>
<path d="M475.472 234.635L386 195.998" stroke="#F06E00" stroke-width="3"/>
<path d="M298.5 155.002L199 109.001" stroke="#F06E00" stroke-width="3"/>
<path d="M451.546 241.712V217.135L488.231 231.419V256.836L451.546 241.712Z" fill="#FAB378"/>
<path d="M488.232 256.839V231.632L524 218.398V242.345L488.232 256.839Z" fill="#FD9F50"/>
<path d="M524 218.399L488.232 202.645L451.547 217.139L488.232 231.633L524 218.399Z" fill="#F06E00"/>
<path d="M328.038 142.208L258.2 112.878L301.525 93.7694L270.486 79.5488" stroke="#F06E00" stroke-width="2"/>
<path d="M274.366 169.312L201.296 135.982L156.678 155.536L130.5 142" stroke="#FAB378" stroke-width="2"/>
<path d="M348.084 134.209L239.448 179.537L329.978 220.421L439.261 173.316L348.084 134.209Z" stroke="#F06E00" stroke-width="2"/>
<path d="M300.362 173.632V167.33L335.213 181.825L370.064 167.33V173.002L335.213 187.497L300.362 173.632Z" fill="#FAB378"/>
<path d="M335.214 152.836L300.364 167.33L335.214 181.824L370.065 167.33L335.214 152.836Z" fill="#F06E00"/>
<path d="M335.213 187.497V181.825L370.064 167.33V173.002L335.213 187.497Z" fill="#FD9F50"/>
<path d="M300.362 158.503V152.201L335.213 166.696L370.064 152.201V157.873L335.213 172.368L300.362 158.503Z" fill="#FAB378"/>
<path d="M335.216 137.713L300.365 152.207L335.216 166.701L370.067 152.207L335.216 137.713Z" fill="#F06E00"/>
<path d="M335.213 172.368V166.696L370.064 152.201V157.873L335.213 172.368Z" fill="#FD9F50"/>
<path d="M300.362 142.126V135.824L335.213 150.319L370.064 135.824V141.496L335.213 155.991L300.362 142.126Z" fill="#FAB378"/>
<path d="M335.216 121.326L300.365 135.82L335.216 150.314L370.067 135.82L335.216 121.326Z" fill="#F06E00"/>
<path d="M335.213 155.991V150.319L370.064 135.824V141.496L335.213 155.991Z" fill="#FD9F50"/>
</svg>
