<svg width="119" height="36" viewBox="0 0 119 36" fill="none" xmlns="http://www.w3.org/2000/svg">
<path d="M43.463 20.8993V12.297H41.5926V20.8993H43.463ZM45.1859 20.8993C46.1581 20.9616 47.204 21.0115 48.4838 21.0115C51.1542 21.0115 52.1018 20.0017 52.1018 16.5982C52.1018 13.1946 51.1542 12.1848 48.4838 12.1848C47.1917 12.1848 46.1581 12.2347 45.1859 12.297V20.8993ZM47.0564 13.6808L48.4838 13.6684C49.7514 13.6684 50.1329 14.3416 50.1329 16.5982C50.1329 18.8547 49.7514 19.5155 48.4838 19.5155C47.967 19.5155 47.4871 19.503 47.0564 19.503V13.6808ZM58.0702 18.6427L58.6855 20.8993H60.5929L58.144 12.7956C58.0701 12.484 57.8117 12.297 57.4918 12.297H55.7197C55.4121 12.297 55.1414 12.484 55.0675 12.7956L52.6187 20.8993H54.5384L55.1536 18.6427H58.0702ZM57.664 17.1716H55.5474L56.2612 14.5411C56.3227 14.2793 56.3842 13.9925 56.4457 13.7307H56.778C56.815 13.9925 56.8888 14.2793 56.9503 14.5411L57.664 17.1716ZM63.3125 12.297H61.442V19.104C61.442 20.1638 62.0203 20.9367 63.3863 20.9367C64.5923 20.9367 65.8475 20.9243 66.9796 20.7995L66.8935 19.3534H63.977C63.4971 19.3534 63.3125 19.1664 63.3125 18.7175V12.297ZM68.0134 20.8993H69.8839V17.7077C70.3761 17.7701 70.9298 17.8074 71.4836 17.8074C73.5879 17.8074 74.3386 17.209 74.3386 14.9899C74.3386 12.7956 73.5879 12.1848 71.2375 12.1848C69.7115 12.1848 69.0347 12.1972 68.0134 12.297V20.8993ZM69.8839 16.3488V13.6559L71.2006 13.6434C72.1604 13.6434 72.4558 13.9177 72.4558 14.9899C72.4558 16.0621 72.1604 16.3363 71.2006 16.3488H69.8839ZM83.8633 19.2911C83.1127 19.3908 82.4359 19.4032 81.3037 19.4032C80.0731 19.4032 79.7039 18.7674 79.7039 16.5982C79.7039 14.4289 80.0731 13.793 81.3037 13.793C82.3743 13.793 82.8912 13.8055 83.6911 13.8554L83.851 12.4341C83.0757 12.2347 82.4974 12.1474 81.3037 12.1474C78.6826 12.1474 77.735 13.3192 77.735 16.5982C77.735 19.877 78.6826 21.0489 81.3037 21.0489C82.522 21.0489 83.2357 20.9491 84.0233 20.6999L83.8633 19.2911ZM85.2785 16.1244C86.2507 16.0621 87.2598 16.0246 87.8381 16.0246C88.6134 16.0246 88.8226 16.1992 88.8349 16.8226V17.0968H86.6691C85.5123 17.0968 84.8109 17.6703 84.8109 18.6552V19.2786C84.8109 20.4255 85.66 21.0489 86.7921 21.0489C87.8627 21.0489 88.6011 20.4755 89.0318 19.9643L89.2164 20.8993H90.6562V16.835C90.6562 15.1021 89.8317 14.5785 88.2689 14.5785C87.4197 14.5785 85.9923 14.7156 85.1062 14.8777L85.2785 16.1244ZM86.6076 18.7923C86.6076 18.4433 86.7552 18.2189 87.1982 18.2064H88.8349V19.0667C88.3181 19.4656 87.7397 19.6651 87.3213 19.6651C86.8291 19.6651 86.6076 19.4656 86.6076 19.0292V18.7923ZM93.5727 14.753H92.096V23.268H93.9049V21.7844C93.9172 21.3356 93.9049 20.8868 93.868 20.463C94.4341 20.8868 95.1601 21.0614 95.8985 21.0614C97.4244 21.0614 98.212 20.3258 98.212 17.8822C98.212 15.8002 97.6213 14.5909 96.12 14.5909C95.1847 14.5909 94.2126 15.0397 93.708 15.6506L93.5727 14.753ZM93.9049 16.6231C94.471 16.249 94.8648 16.0371 95.394 16.0371C96.0708 16.0371 96.3415 16.3986 96.3415 17.8822C96.3415 19.4157 96.0585 19.69 95.2832 19.69C94.754 19.69 94.3849 19.5653 93.9049 19.4407V16.6231ZM100.021 12.0352C99.6641 12.0352 99.4918 12.2222 99.4918 12.5712V13.2444C99.4918 13.606 99.6641 13.7805 100.021 13.7805H100.833C101.19 13.7805 101.362 13.606 101.362 13.2444V12.5712C101.362 12.2222 101.19 12.0352 100.833 12.0352H100.021ZM101.338 20.8993V14.753H99.5287V20.8993H101.338ZM105.239 15.9873H106.925V14.753H105.239V13.0325H103.43V14.753L102.359 14.8153V15.9873H103.43V19.2786C103.43 20.4006 104.07 21.0489 105.165 21.0489C105.596 21.0489 106.42 20.9616 106.875 20.7995L106.678 19.5155H105.903C105.411 19.5155 105.239 19.3534 105.239 18.8921V15.9873ZM108.094 16.1244C109.066 16.0621 110.075 16.0246 110.653 16.0246C111.428 16.0246 111.638 16.1992 111.65 16.8226V17.0968H109.484C108.327 17.0968 107.626 17.6703 107.626 18.6552V19.2786C107.626 20.4255 108.475 21.0489 109.607 21.0489C110.678 21.0489 111.416 20.4755 111.847 19.9643L112.031 20.8993H113.471V16.835C113.471 15.1021 112.647 14.5785 111.084 14.5785C110.235 14.5785 108.807 14.7156 107.921 14.8777L108.094 16.1244ZM109.423 18.7923C109.423 18.4433 109.57 18.2189 110.013 18.2064H111.65V19.0667C111.133 19.4656 110.555 19.6651 110.136 19.6651C109.644 19.6651 109.423 19.4656 109.423 19.0292V18.7923ZM116.732 12.1723H114.923V19.3534C114.923 20.438 115.6 21.0489 116.671 21.0489C117.065 21.0489 117.815 20.9616 118.123 20.7995L117.914 19.5155H117.421C116.966 19.5155 116.732 19.316 116.732 18.8921V12.1723Z" fill="#151515"/>
<path fill-rule="evenodd" clip-rule="evenodd" d="M16.0766 16.3633C16.718 16.3633 17.238 16.8623 17.238 17.478C17.238 18.0936 16.718 18.5927 16.0766 18.5927C15.4352 18.5927 14.9152 18.0936 14.9152 17.478C14.9152 16.8623 15.4352 16.3633 16.0766 16.3633Z" fill="#151515"/>
<path fill-rule="evenodd" clip-rule="evenodd" d="M16.0764 8.16211C16.9599 8.16211 17.6761 8.84955 17.6761 9.69749C17.6761 10.5454 16.9599 11.2328 16.0764 11.2328C15.193 11.2328 14.4768 10.5454 14.4768 9.69749C14.4768 8.84955 15.193 8.16211 16.0764 8.16211Z" fill="#151515"/>
<path fill-rule="evenodd" clip-rule="evenodd" d="M16.0764 23.7227C16.9599 23.7227 17.6761 24.4101 17.6761 25.258C17.6761 26.106 16.9599 26.7933 16.0764 26.7933C15.193 26.7933 14.4768 26.106 14.4768 25.258C14.4768 24.4101 15.193 23.7227 16.0764 23.7227Z" fill="#151515"/>
<path fill-rule="evenodd" clip-rule="evenodd" d="M9.06982 19.8242C9.95326 19.8242 10.6695 20.5116 10.6695 21.3596C10.6695 22.2075 9.95326 22.8949 9.06982 22.8949C8.18638 22.8949 7.47015 22.2075 7.47015 21.3596C7.47015 20.5116 8.18638 19.8242 9.06982 19.8242Z" fill="#151515"/>
<path fill-rule="evenodd" clip-rule="evenodd" d="M9.06982 12.125C9.95326 12.125 10.6695 12.8124 10.6695 13.6604C10.6695 14.5083 9.95326 15.1957 9.06982 15.1957C8.18638 15.1957 7.47015 14.5083 7.47015 13.6604C7.47015 12.8124 8.18638 12.125 9.06982 12.125Z" fill="#151515"/>
<path fill-rule="evenodd" clip-rule="evenodd" d="M23.0948 19.8242C23.9783 19.8242 24.6945 20.5116 24.6945 21.3596C24.6945 22.2075 23.9783 22.8949 23.0948 22.8949C22.2114 22.8949 21.4952 22.2075 21.4952 21.3596C21.4952 20.5116 22.2114 19.8242 23.0948 19.8242Z" fill="#151515"/>
<path fill-rule="evenodd" clip-rule="evenodd" d="M23.0948 12.125C23.9783 12.125 24.6945 12.8124 24.6945 13.6604C24.6945 14.5083 23.9783 15.1957 23.0948 15.1957C22.2114 15.1957 21.4952 14.5083 21.4952 13.6604C21.4952 12.8124 22.2114 12.125 23.0948 12.125Z" fill="#151515"/>
<path fill-rule="evenodd" clip-rule="evenodd" d="M16.0765 0C17.202 0 18.1143 0.875667 18.1143 1.95599C18.1143 3.03625 17.202 3.91198 16.0765 3.91198C14.951 3.91198 14.0386 3.03625 14.0386 1.95599C14.0386 0.875667 14.951 0 16.0765 0Z" fill="#151515"/>
<path fill-rule="evenodd" clip-rule="evenodd" d="M16.0766 31.0898C17.2021 31.0898 18.1144 31.9655 18.1144 33.0458C18.1144 34.126 17.2021 35.0018 16.0766 35.0018C14.9511 35.0018 14.0387 34.126 14.0387 33.0458C14.0387 31.9655 14.9511 31.0898 16.0766 31.0898Z" fill="#151515"/>
<path fill-rule="evenodd" clip-rule="evenodd" d="M2.03789 23.3711C3.16337 23.3711 4.07578 24.2468 4.07578 25.3271C4.07578 26.4073 3.16337 27.2831 2.03789 27.2831C0.912402 27.2831 0 26.4073 0 25.3271C0 24.2468 0.912402 23.3711 2.03789 23.3711Z" fill="#151515"/>
<path fill-rule="evenodd" clip-rule="evenodd" d="M2.03789 7.80273C3.16337 7.80273 4.07578 8.6784 4.07578 9.75873C4.07578 10.8389 3.16337 11.7147 2.03789 11.7147C0.912402 11.7147 0 10.8389 0 9.75873C0 8.6784 0.912402 7.80273 2.03789 7.80273Z" fill="#151515"/>
<path fill-rule="evenodd" clip-rule="evenodd" d="M30.1313 23.3711C31.2569 23.3711 32.1692 24.2468 32.1692 25.3271C32.1692 26.4073 31.2569 27.2831 30.1313 27.2831C29.0058 27.2831 28.0934 26.4073 28.0934 25.3271C28.0934 24.2468 29.0058 23.3711 30.1313 23.3711Z" fill="#151515"/>
<path fill-rule="evenodd" clip-rule="evenodd" d="M30.1313 7.80273C31.2569 7.80273 32.1692 8.6784 32.1692 9.75873C32.1692 10.8389 31.2569 11.7147 30.1313 11.7147C29.0058 11.7147 28.0934 10.8389 28.0934 9.75873C28.0934 8.6784 29.0058 7.80273 30.1313 7.80273Z" fill="#151515"/>
</svg>
