<svg width="496" height="153" viewBox="0 0 496 153" fill="none" xmlns="http://www.w3.org/2000/svg">
<path d="M183.575 90.3292V54.8388H175.757V90.3292H183.575ZM190.776 90.3292C194.839 90.5863 199.211 90.7922 204.56 90.7922C215.722 90.7922 219.683 86.6259 219.683 72.584C219.683 58.5421 215.722 54.3758 204.56 54.3758C199.16 54.3758 194.839 54.5817 190.776 54.8388V90.3292V90.3292ZM198.594 60.5482L204.56 60.4967C209.858 60.4967 211.453 63.2741 211.453 72.584C211.453 81.8939 209.858 84.6198 204.56 84.6198C202.4 84.6198 200.394 84.5684 198.594 84.5684V60.5482V60.5482ZM244.629 81.0193L247.2 90.3292H255.173L244.937 56.8961C244.629 55.6102 243.548 54.8388 242.211 54.8388H234.804C233.519 54.8388 232.387 55.6102 232.079 56.8961L221.843 90.3292H229.867L232.438 81.0193H244.629V81.0193ZM242.931 74.9499H234.084L237.068 64.0972C237.325 63.017 237.582 61.8341 237.839 60.7538H239.228C239.382 61.8341 239.691 63.017 239.948 64.0972L242.931 74.9499ZM266.54 54.8388H258.722V82.9224C258.722 87.2946 261.139 90.4836 266.849 90.4836C271.89 90.4836 277.136 90.4321 281.868 89.9176L281.508 83.9512H269.318C267.312 83.9512 266.54 83.1798 266.54 81.3279V54.8388V54.8388ZM286.189 90.3292H294.007V77.1616C296.064 77.419 298.379 77.5731 300.693 77.5731C309.489 77.5731 312.626 75.1043 312.626 65.9489C312.626 56.8961 309.489 54.3758 299.665 54.3758C293.287 54.3758 290.458 54.4273 286.189 54.8388V90.3292V90.3292ZM294.007 71.5552V60.4452L299.51 60.3937C303.522 60.3937 304.757 61.5255 304.757 65.9489C304.757 70.3723 303.522 71.5037 299.51 71.5552H294.007V71.5552ZM352.437 83.694C349.3 84.1056 346.471 84.1568 341.738 84.1568C336.595 84.1568 335.052 81.5338 335.052 72.584C335.052 63.6342 336.595 61.0109 341.738 61.0109C346.213 61.0109 348.374 61.0624 351.717 61.2683L352.386 55.4046C349.145 54.5817 346.728 54.2216 341.738 54.2216C330.783 54.2216 326.822 59.0563 326.822 72.584C326.822 86.1114 330.783 90.9464 341.738 90.9464C346.831 90.9464 349.814 90.5348 353.106 89.5063L352.437 83.694V83.694ZM358.352 70.6294C362.416 70.3723 366.633 70.2178 369.051 70.2178C372.291 70.2178 373.165 70.938 373.217 73.5098V74.6413H364.164C359.329 74.6413 356.398 77.0074 356.398 81.0708V83.6425C356.398 88.3746 359.947 90.9464 364.679 90.9464C369.154 90.9464 372.24 88.5805 374.04 86.4715L374.811 90.3292H380.829V73.5613C380.829 66.4116 377.383 64.2514 370.851 64.2514C367.302 64.2514 361.336 64.8171 357.632 65.4858L358.352 70.6294ZM363.907 81.6365C363.907 80.1964 364.525 79.2706 366.376 79.2191H373.217V82.7682C371.057 84.4142 368.639 85.2371 366.89 85.2371C364.833 85.2371 363.907 84.4142 363.907 82.6138V81.6365ZM393.02 64.9716H386.847V100.102H394.408V93.9809C394.46 92.1293 394.408 90.2777 394.254 88.529C396.62 90.2777 399.655 90.9979 402.741 90.9979C409.119 90.9979 412.411 87.963 412.411 77.8817C412.411 69.292 409.942 64.3029 403.667 64.3029C399.757 64.3029 395.694 66.1545 393.585 68.6748L393.02 64.9716V64.9716ZM394.408 72.687C396.774 71.1436 398.42 70.2693 400.632 70.2693C403.461 70.2693 404.592 71.7609 404.592 77.8817C404.592 84.2083 403.41 85.34 400.169 85.34C397.957 85.34 396.414 84.8255 394.408 84.3112V72.687V72.687ZM419.972 53.7586C418.48 53.7586 417.76 54.5302 417.76 55.9703V58.7477C417.76 60.2396 418.48 60.9594 419.972 60.9594H423.366C424.858 60.9594 425.578 60.2396 425.578 58.7477V55.9703C425.578 54.5302 424.858 53.7586 423.366 53.7586H419.972ZM425.475 90.3292V64.9716H417.914V90.3292H425.475ZM441.78 70.0637H448.827V64.9716H441.78V57.8734H434.219V64.9716L429.744 65.2287V70.0637H434.219V83.6425C434.219 88.2716 436.894 90.9464 441.472 90.9464C443.272 90.9464 446.718 90.5863 448.621 89.9176L447.798 84.6198H444.558C442.5 84.6198 441.78 83.9512 441.78 82.048V70.0637V70.0637ZM453.713 70.6294C457.776 70.3723 461.994 70.2178 464.412 70.2178C467.652 70.2178 468.526 70.938 468.578 73.5098V74.6413H459.525C454.69 74.6413 451.759 77.0074 451.759 81.0708V83.6425C451.759 88.3746 455.308 90.9464 460.04 90.9464C464.515 90.9464 467.601 88.5805 469.401 86.4715L470.172 90.3292H476.19V73.5613C476.19 66.4116 472.744 64.2514 466.212 64.2514C462.663 64.2514 456.697 64.8171 452.993 65.4858L453.713 70.6294ZM459.268 81.6365C459.268 80.1964 459.886 79.2706 461.737 79.2191H468.578V82.7682C466.418 84.4142 464 85.2371 462.251 85.2371C460.194 85.2371 459.268 84.4142 459.268 82.6138V81.6365ZM489.821 54.3243H482.26V83.9512C482.26 88.4261 485.089 90.9464 489.564 90.9464C491.21 90.9464 494.347 90.5863 495.633 89.9176L494.759 84.6198H492.701C490.798 84.6198 489.821 83.797 489.821 82.048V54.3243V54.3243Z" fill="#F8F8F8"/>
<path fill-rule="evenodd" clip-rule="evenodd" d="M67.4557 71.5351C70.1469 71.5351 72.3287 73.7166 72.3287 76.4081C72.3287 79.0993 70.1469 81.2811 67.4557 81.2811C64.7645 81.2811 62.5827 79.0993 62.5827 76.4081C62.5827 73.7166 64.7645 71.5351 67.4557 71.5351Z" fill="#F8F8F8"/>
<path fill-rule="evenodd" clip-rule="evenodd" d="M67.4545 35.6747C71.1613 35.6747 74.1665 38.68 74.1665 42.3868C74.1665 46.0936 71.1613 49.0986 67.4545 49.0986C63.7477 49.0986 60.7424 46.0936 60.7424 42.3868C60.7424 38.68 63.7477 35.6747 67.4545 35.6747Z" fill="#F8F8F8"/>
<path fill-rule="evenodd" clip-rule="evenodd" d="M67.4545 103.718C71.1613 103.718 74.1665 106.723 74.1665 110.43C74.1665 114.137 71.1613 117.142 67.4545 117.142C63.7477 117.142 60.7424 114.137 60.7424 110.43C60.7424 106.723 63.7477 103.718 67.4545 103.718V103.718Z" fill="#F8F8F8"/>
<path fill-rule="evenodd" clip-rule="evenodd" d="M38.0578 86.6644C41.7646 86.6644 44.7698 89.6693 44.7698 93.3764C44.7698 97.0833 41.7646 100.088 38.0578 100.088C34.3509 100.088 31.3457 97.0833 31.3457 93.3764C31.3457 89.6693 34.3509 86.6644 38.0578 86.6644V86.6644Z" fill="#F8F8F8"/>
<path fill-rule="evenodd" clip-rule="evenodd" d="M38.0578 52.9983C41.7646 52.9983 44.7698 56.0032 44.7698 59.7103C44.7698 63.4172 41.7646 66.4221 38.0578 66.4221C34.3509 66.4221 31.3457 63.4172 31.3457 59.7103C31.3457 56.0032 34.3509 52.9983 38.0578 52.9983Z" fill="#F8F8F8"/>
<path fill-rule="evenodd" clip-rule="evenodd" d="M96.9029 86.6644C100.61 86.6644 103.615 89.6693 103.615 93.3764C103.615 97.0833 100.61 100.088 96.9029 100.088C93.196 100.088 90.1911 97.0833 90.1911 93.3764C90.1911 89.6693 93.196 86.6644 96.9029 86.6644V86.6644Z" fill="#F8F8F8"/>
<path fill-rule="evenodd" clip-rule="evenodd" d="M96.9029 52.9983C100.61 52.9983 103.615 56.0032 103.615 59.7103C103.615 63.4172 100.61 66.4221 96.9029 66.4221C93.196 66.4221 90.1911 63.4172 90.1911 59.7103C90.1911 56.0032 93.196 52.9983 96.9029 52.9983Z" fill="#F8F8F8"/>
<path fill-rule="evenodd" clip-rule="evenodd" d="M67.4546 0C72.1771 0 76.0052 3.82806 76.0052 8.55081C76.0052 13.2733 72.1771 17.1016 67.4546 17.1016C62.7322 17.1016 58.9038 13.2733 58.9038 8.55081C58.9038 3.82806 62.7322 0 67.4546 0V0Z" fill="#F8F8F8"/>
<path fill-rule="evenodd" clip-rule="evenodd" d="M67.4546 135.898C72.1771 135.898 76.0052 139.726 76.0052 144.449C76.0052 149.171 72.1771 153 67.4546 153C62.7322 153 58.9038 149.171 58.9038 144.449C58.9038 139.726 62.7322 135.898 67.4546 135.898Z" fill="#F8F8F8"/>
<path fill-rule="evenodd" clip-rule="evenodd" d="M8.55081 102.16C13.2733 102.16 17.1016 105.988 17.1016 110.711C17.1016 115.433 13.2733 119.262 8.55081 119.262C3.82836 119.262 0 115.433 0 110.711C0 105.988 3.82836 102.16 8.55081 102.16Z" fill="#F8F8F8"/>
<path fill-rule="evenodd" clip-rule="evenodd" d="M8.55081 34.1168C13.2733 34.1168 17.1016 37.9448 17.1016 42.6676C17.1016 47.3897 13.2733 51.2184 8.55081 51.2184C3.82836 51.2184 0 47.3897 0 42.6676C0 37.9448 3.82836 34.1168 8.55081 34.1168Z" fill="#F8F8F8"/>
<path fill-rule="evenodd" clip-rule="evenodd" d="M126.427 102.16C131.149 102.16 134.978 105.988 134.978 110.711C134.978 115.433 131.149 119.262 126.427 119.262C121.704 119.262 117.876 115.433 117.876 110.711C117.876 105.988 121.704 102.16 126.427 102.16Z" fill="#F8F8F8"/>
<path fill-rule="evenodd" clip-rule="evenodd" d="M126.427 34.1168C131.149 34.1168 134.978 37.9448 134.978 42.6676C134.978 47.3897 131.149 51.2184 126.427 51.2184C121.704 51.2184 117.876 47.3897 117.876 42.6676C117.876 37.9448 121.704 34.1168 126.427 34.1168Z" fill="#F8F8F8"/>
</svg>
