<svg width="74" height="74" viewBox="0 0 74 74" fill="none" xmlns="http://www.w3.org/2000/svg">
<path d="M37.9661 40.3868C37.8292 40.3572 37.6887 40.3519 37.5501 40.3726C36.1602 40.2108 35.1118 39.0349 35.1094 37.6362C35.1094 36.9659 34.5659 36.4224 33.8956 36.4224C33.2253 36.4224 32.6818 36.9659 32.6818 37.6362C32.6853 39.972 34.2476 42.0179 36.4998 42.6361V43.8499C36.4998 44.5202 37.0433 45.0637 37.7136 45.0637C38.384 45.0637 38.9275 44.5202 38.9275 43.8499V42.7096C41.527 42.1655 43.2937 39.7444 43.0205 37.1028C42.7467 34.4612 40.5212 32.4538 37.8654 32.4532C36.3434 32.4532 35.1094 31.2192 35.1094 29.6972C35.1094 28.1752 36.3434 26.9412 37.8654 26.9412C39.3874 26.9412 40.6213 28.1752 40.6213 29.6972C40.6213 30.3675 41.1648 30.911 41.8352 30.911C42.5055 30.911 43.049 30.3675 43.049 29.6972C43.0454 27.2447 41.3272 25.1294 38.9275 24.6233V23.5185C38.9275 22.8482 38.384 22.3047 37.7136 22.3047C37.0433 22.3047 36.4998 22.8482 36.4998 23.5185V24.6973C33.9952 25.3813 32.3831 27.8131 32.728 30.3865C33.0729 32.9599 35.2688 34.8808 37.8654 34.8802C39.3672 34.8802 40.5923 36.0828 40.6196 37.5841C40.6474 39.0853 39.4668 40.3323 37.9661 40.3868Z" fill="#E3E3E3"/>
<path d="M20.2637 33.7597C20.2637 43.4809 28.144 51.3612 37.8651 51.3612C47.5863 51.3612 55.4666 43.4809 55.4666 33.7597C55.4666 24.0385 47.5863 16.1582 37.8651 16.1582C28.1487 16.1689 20.2749 24.0433 20.2637 33.7597ZM37.8651 18.5858C46.2457 18.5858 53.039 25.3792 53.039 33.7597C53.039 42.1402 46.2457 48.9335 37.8651 48.9335C29.4846 48.9335 22.6913 42.1402 22.6913 33.7597C22.7008 25.3833 29.4888 18.5953 37.8651 18.5858Z" fill="#E3E3E3"/>
<path d="M61.4505 54.3537L51.9421 58.8463C50.6293 56.4044 48.111 54.8504 45.3396 54.7722L36.562 54.531C35.1722 54.4912 33.8084 54.1392 32.5727 53.5009L31.6795 53.038C27.1064 50.6542 21.6555 50.6601 17.0871 53.0534L17.1428 51.03C17.1611 50.3597 16.6331 49.8013 15.9627 49.783L6.33758 49.518C5.66725 49.4997 5.10954 50.0278 5.09116 50.6981L4.50974 71.8201C4.49137 72.4904 5.01945 73.0487 5.68977 73.0671L15.3149 73.332H15.3481C16.006 73.332 16.5442 72.8087 16.5619 72.1514L16.5898 71.1409L19.0903 69.802C20.0718 69.2739 21.2192 69.1483 22.2914 69.4517L37.2234 73.6426C37.2495 73.6503 37.2756 73.6562 37.3023 73.6622C38.3815 73.888 39.4816 74.0012 40.584 74.0006C42.9191 74.0018 45.227 73.4986 47.3494 72.5242C47.4016 72.5005 47.452 72.4726 47.5 72.4412L69.1501 58.4373C69.6894 58.0882 69.8636 57.38 69.5478 56.8205C67.9404 53.9685 64.3754 52.8821 61.4505 54.3537ZM6.96997 70.6738L7.48442 51.9783L14.6825 52.1762L14.1681 70.8724L6.96997 70.6738ZM46.2559 70.3562C43.6191 71.5463 40.674 71.8746 37.8398 71.2956L22.9481 67.1154C21.272 66.6418 19.4779 66.838 17.9447 67.6624L16.6668 68.347L17.0088 55.9166C21.058 53.2235 26.2511 52.9467 30.5635 55.1936L31.4566 55.6565C33.0178 56.4625 34.7395 56.907 36.4956 56.958L45.2738 57.1992C47.7394 57.2703 49.8334 59.0259 50.3336 61.4416L37.2584 61.0807C36.5881 61.0623 36.0304 61.591 36.0114 62.2607C35.993 62.931 36.5217 63.4894 37.1914 63.5077L51.6209 63.9048H51.6547C52.312 63.9042 52.8495 63.3809 52.8673 62.7242C52.8821 62.1967 52.843 61.6686 52.7499 61.1494L62.5025 56.5413C62.512 56.5372 62.5215 56.5324 62.531 56.5277C63.9143 55.8277 65.5869 56.0619 66.7248 57.115L46.2559 70.3562Z" fill="#E3E3E3"/>
<path d="M39.079 12.745V1.21381C39.079 0.54349 38.5355 0 37.8652 0C37.1949 0 36.6514 0.54349 36.6514 1.21381V12.745C36.6514 13.4154 37.1949 13.9589 37.8652 13.9589C38.5355 13.9589 39.079 13.4154 39.079 12.745Z" fill="#E3E3E3"/>
<path d="M48.1825 12.7443V7.28217C48.1825 6.61185 47.639 6.06836 46.9687 6.06836C46.2984 6.06836 45.7549 6.61185 45.7549 7.28217V12.7443C45.7549 13.4147 46.2984 13.9582 46.9687 13.9582C47.639 13.9582 48.1825 13.4147 48.1825 12.7443Z" fill="#E3E3E3"/>
<path d="M29.9755 12.7443V7.28217C29.9755 6.61185 29.432 6.06836 28.7617 6.06836C28.0913 6.06836 27.5479 6.61185 27.5479 7.28217V12.7443C27.5479 13.4147 28.0913 13.9582 28.7617 13.9582C29.432 13.9582 29.9755 13.4147 29.9755 12.7443Z" fill="#E3E3E3"/>
</svg>
